<svg width="64" height="64" viewBox="0 0 64 64" fill="none" xmlns="http://www.w3.org/2000/svg">
<path d="M0 41V61.59C0 62.6946 0.89543 63.59 2 63.59H61.3832C62.4877 63.59 63.3832 62.6946 63.3832 61.59V41H0ZM60.8231 60.4793H2.55996V44.1106H60.8231V60.4793Z" fill="black"/>
<path d="M38.605 49V52.6887H24.56V49H22V55.2487H41.165V49H38.605Z" fill="black"/>
<path d="M0 20.7036V43.2936H63.3832V20.7036H0ZM60.8231 40.183H2.55996V23.8143H60.8231V40.183Z" fill="black"/>
<path d="M38.605 29V32.6887H24.56V29H22V35.2487H41.165V29H38.605Z" fill="black"/>
<path d="M2 0C0.895432 0 0 0.89543 0 2V22.59H63.38V2C63.38 0.895428 62.4846 0 61.38 0H2ZM60.82 19.4792H2.55983V3.11079H60.82V19.4792Z" fill="black"/>
<path d="M38.605 9V12.6887H24.56V9H22V15.2487H41.165V9H38.605Z" fill="black"/>
</svg>
