<svg width="64" height="52" viewBox="0 0 64 52" fill="none" xmlns="http://www.w3.org/2000/svg">
<path d="M48.8518 36.7109C54.4634 32.9157 58.1898 28.1743 59.6771 26.0757C60.1322 25.4328 60.1322 24.6338 59.6771 23.9919C58.2134 21.9259 54.5818 17.3039 49.1207 13.5416C49.1923 13.7218 49.2682 13.9007 49.3338 14.0827C50.0458 16.0709 50.407 18.1592 50.407 20.2891C50.407 25.2546 48.4269 29.764 45.2195 33.0783L42.4093 30.2683C44.897 27.6744 46.4304 24.1586 46.4304 20.2895C46.4304 18.6175 46.1478 16.9803 45.5904 15.4242C45.0368 13.8783 44.2128 12.4306 43.1699 11.156C42.3859 10.1983 41.3463 9.50259 40.1632 9.13971C37.6464 8.36755 34.9222 7.90354 32.0003 7.90354C29.0784 7.90354 26.3539 8.36787 23.8378 9.13971C23.2211 9.32851 22.6423 9.61266 22.1165 9.9749L18.8906 6.74867C22.7309 5.05075 27.1146 3.92627 32.0003 3.92627C49.0138 3.92627 59.9696 17.5256 62.9222 21.6927C64.359 23.7215 64.3594 26.3432 62.9226 28.3733C61.3514 30.5903 57.5146 35.476 51.7062 39.5647L48.8518 36.7109Z" fill="black"/>
<path d="M1.07798 21.6937C2.64885 19.4764 6.4879 14.5929 12.2969 10.5052L5.61462 3.82328C4.83797 3.04696 4.83797 1.78776 5.61462 1.01144C6.39061 0.235119 7.65046 0.235119 8.42614 1.01144L55.5916 48.1766C56.3679 48.9529 56.3679 50.2118 55.5916 50.9881C55.2031 51.3766 54.6946 51.5705 54.1855 51.5705C53.6764 51.5705 53.1679 51.3766 52.7794 50.9881L45.11 43.3186C41.27 45.0172 36.8857 46.1398 32.0002 46.1398C14.9839 46.1398 4.03029 32.5407 1.07893 28.3734C-0.358829 26.3458 -0.359467 23.7234 1.07798 21.6937ZM17.5698 20.2892C17.5698 28.2457 24.0431 34.719 32.0005 34.719C33.3724 34.719 34.6994 34.5254 35.9567 34.1654L32.0511 30.2598C32.0124 30.2601 31.9737 30.261 31.9349 30.261C26.4873 30.261 22.0713 25.8457 22.0713 20.3977C22.0713 20.3586 22.0722 20.3199 22.0729 20.2812L18.1199 16.3282C17.7548 17.6098 17.5698 18.9382 17.5698 20.2892ZM4.32343 26.0748C6.9967 29.8492 16.8927 42.1634 32.0005 42.1634C35.6745 42.1634 39.0383 41.4325 42.0665 40.2745L39.0719 37.2799C36.8937 38.191 34.5055 38.6956 32.0009 38.6956C21.8514 38.6956 13.5941 30.4377 13.5941 20.2889C13.5941 18.1593 13.9551 16.071 14.6671 14.0825C14.7327 13.9004 14.8089 13.7218 14.8802 13.5414C9.41878 17.3036 5.78678 21.9266 4.32374 23.9916C3.86774 24.6345 3.86774 25.4319 4.32343 26.0748Z" fill="black"/>
<path d="M36.6008 19.9481C38.8148 19.9481 40.627 18.2402 40.8004 16.0716C41.4395 17.3772 41.7988 18.845 41.7988 20.3977C41.7988 22.9676 40.8152 25.3074 39.2049 27.0626L25.2699 13.1279C27.0251 11.5174 29.3652 10.5337 31.9352 10.5337C33.4872 10.5337 34.9553 10.8937 36.2619 11.5321C34.0907 11.7055 32.3832 13.5167 32.3832 15.7321C32.3832 18.0601 34.2708 19.9481 36.6008 19.9481Z" fill="black"/>
</svg>
