<svg width="62" height="55" viewBox="0 0 62 55" fill="none" xmlns="http://www.w3.org/2000/svg">
<path fill-rule="evenodd" clip-rule="evenodd" d="M29.1615 0.73562C30.1916 -0.245207 31.8097 -0.245207 32.8399 0.73562L54.1732 21.0531L60.8399 27.4024C61.9063 28.4179 61.9473 30.1059 60.9316 31.1725C59.9161 32.2389 58.2281 32.28 57.1615 31.2643L55.0007 29.2064V49.3333C55.0007 52.2789 52.6129 54.6667 49.6673 54.6667H36.334H25.6673H12.334C9.38847 54.6667 7.00066 52.2789 7.00066 49.3333V29.2064L4.83975 31.2643C3.77324 32.28 2.08532 32.2389 1.06962 31.1725C0.0539258 30.1059 0.0950938 28.4179 1.16158 27.4024L7.82823 21.0531L29.1615 0.73562ZM12.334 24.1269V49.3333H23.0007V36C23.0007 31.5816 26.5823 28 31.0007 28C35.4191 28 39.0007 31.5816 39.0007 36V49.3333H49.6673V24.1269L31.0007 6.34919L12.334 24.1269ZM33.6673 49.3333V36C33.6673 34.5272 32.4735 33.3333 31.0007 33.3333C29.5279 33.3333 28.334 34.5272 28.334 36V49.3333H33.6673Z" fill="black"/>
</svg>
