<svg width="48" height="54" viewBox="0 0 48 54" fill="none" xmlns="http://www.w3.org/2000/svg">
<path d="M48 48.3335C48 49.748 47.4381 51.1045 46.4379 52.1047C45.4377 53.1049 44.0812 53.6668 42.6667 53.6668H5.33333C3.91885 53.6668 2.56229 53.1049 1.5621 52.1047C0.561903 51.1045 0 49.748 0 48.3335C0.0264464 43.4752 1.71039 38.7714 4.77333 35.0002C5.61611 33.9693 6.814 33.291 8.13153 33.0986C9.44905 32.9061 10.7909 33.2135 11.8933 33.9602C15.4607 36.3837 19.6739 37.6796 23.9867 37.6796C28.2994 37.6796 32.5127 36.3837 36.08 33.9602C37.1846 33.2057 38.5324 32.8938 39.8561 33.0865C41.1799 33.2791 42.3829 33.9622 43.2267 35.0002C46.2896 38.7714 47.9736 43.4752 48 48.3335ZM24 32.3335C27.1645 32.3335 30.2579 31.3951 32.8891 29.637C35.5203 27.8789 37.5711 25.3801 38.7821 22.4564C39.9931 19.5328 40.3099 16.3158 39.6926 13.2121C39.0752 10.1084 37.5514 7.25744 35.3137 5.01979C33.0761 2.78215 30.2251 1.2583 27.1214 0.640939C24.0177 0.0235752 20.8007 0.340429 17.8771 1.55143C14.9534 2.76243 12.4546 4.81319 10.6965 7.44438C8.93838 10.0756 8 13.169 8 16.3335C8 20.577 9.68571 24.6466 12.6863 27.6472C15.6869 30.6478 19.7565 32.3335 24 32.3335Z" fill="black"/>
</svg>
