<svg width="64" height="64" viewBox="0 0 64 64" fill="none" xmlns="http://www.w3.org/2000/svg">
<path d="M0 43.2402V61.5901C0 62.6947 0.895431 63.5901 2 63.5901H61.38C62.4846 63.5901 63.38 62.6947 63.38 61.5901V43.2402H0ZM41.6752 57.4824H21.7046V49.5492H24.3721V54.2327H39.0076V49.5492H41.6752V57.4824Z" fill="black"/>
<path d="M0 21.6201V41.97H63.38V21.6201H0ZM41.6752 35.862H21.7046V27.9296H24.3721V32.6123H39.0076V27.9296H41.6752V35.862Z" fill="black"/>
<path d="M2 0C0.895432 0 0 0.895431 0 2V20.3499H63.38V2C63.38 0.895433 62.4846 0 61.38 0H2ZM41.6752 14.2423H21.7046V6.30906H24.3721V10.9926H39.0076V6.30906H41.6752V14.2423Z" fill="black"/>
</svg>
