<svg width="46" height="61" viewBox="0 0 46 61" fill="none" xmlns="http://www.w3.org/2000/svg">
<path d="M45.0443 52L40.5 56.5L35.5 61L44.0444 60.9999C44.5966 60.9999 45.0443 60.5522 45.0443 59.9999V52Z" fill="black"/>
<path d="M35 6.95557V10.2222C35 10.7745 34.5523 11.2222 34 11.2222H12C11.4477 11.2222 11 10.7745 11 10.2222V6.95557H1.95508C1.40279 6.95557 0.955078 7.40328 0.955078 7.95557V60.0001C0.955078 60.5524 1.40279 61.0001 1.95508 61.0001H33L38.5 56L45.044 50V7.95557C45.044 7.40328 44.5962 6.95557 44.044 6.95557H35ZM10 23.1778C10 22.0732 10.8954 21.1778 12 21.1778H25.9773C27.0819 21.1778 27.9773 22.0732 27.9773 23.1778V23.4444C27.9773 24.549 27.0819 25.4444 25.9773 25.4444H12C10.8954 25.4444 10 24.549 10 23.4444V23.1778ZM27.9773 40.5112C27.9773 41.6158 27.0819 42.5112 25.9773 42.5112H12C10.8954 42.5112 10 41.6158 10 40.5112V40.2446C10 39.14 10.8954 38.2446 12 38.2446H25.9773C27.0819 38.2446 27.9773 39.14 27.9773 40.2446V40.5112ZM39 31.9778C39 33.0824 38.1046 33.9778 37 33.9778H12C10.8954 33.9778 10 33.0824 10 31.9778V31.7112C10 30.6066 10.8954 29.7112 12 29.7112H37C38.1046 29.7112 39 30.6066 39 31.7112V31.9778Z" fill="black"/>
<rect x="13" width="20" height="10" rx="1" fill="black"/>
</svg>
