<svg width="44" height="32" viewBox="0 0 44 32" fill="none" xmlns="http://www.w3.org/2000/svg">
<path d="M0.666016 4C0.666016 1.79085 2.45687 0 4.66602 0H39.3327C41.5418 0 43.3327 1.79085 43.3327 4V8H0.666016V4Z" fill="black"/>
<path fill-rule="evenodd" clip-rule="evenodd" d="M0.666016 10.6665H43.3327V27.9998C43.3327 30.2089 41.5418 31.9998 39.3327 31.9998H4.66602C2.45687 31.9998 0.666016 30.2089 0.666016 27.9998V10.6665ZM8.66602 18.6665C8.66602 17.9302 9.26298 17.3332 9.99935 17.3332H20.666C21.4023 17.3332 21.9993 17.9302 21.9993 18.6665C21.9993 19.4028 21.4023 19.9998 20.666 19.9998H9.99935C9.26298 19.9998 8.66602 19.4028 8.66602 18.6665ZM9.99935 22.6665C9.26298 22.6665 8.66602 23.2636 8.66602 23.9998C8.66602 24.7361 9.26298 25.3332 9.99935 25.3332H17.9993C18.7356 25.3332 19.3327 24.7361 19.3327 23.9998C19.3327 23.2636 18.7356 22.6665 17.9993 22.6665H9.99935Z" fill="black"/>
<rect x="35" y="18" width="5" height="5" fill="#E5E5E5"/>
</svg>
