<svg width="64" height="64" viewBox="0 0 64 64" fill="none" xmlns="http://www.w3.org/2000/svg">
<path d="M62.2384 17.7624L56.4759 23.5249C55.8884 24.1124 54.9384 24.1124 54.3509 23.5249L40.4759 9.6499C39.8884 9.0624 39.8884 8.1124 40.4759 7.5249L46.2384 1.7624C48.5759 -0.575098 52.3759 -0.575098 54.7259 1.7624L62.2384 9.2749C64.5884 11.6124 64.5884 15.4124 62.2384 17.7624ZM35.5259 12.4749L2.70094 45.2999L0.0509443 60.4874C-0.311556 62.5374 1.47594 64.3124 3.52594 63.9624L18.7134 61.2999L51.5384 28.4749C52.1259 27.8874 52.1259 26.9374 51.5384 26.3499L37.6634 12.4749C37.0634 11.8874 36.1134 11.8874 35.5259 12.4749ZM11.0009 52.9999H17.0009V57.5374L8.93844 58.9499L4 60L5.05094 55.0624L6.46344 46.9999H11.0009V52.9999Z" fill="#13B48A"/>
</svg>
