<svg width="62" height="62" viewBox="0 0 62 62" fill="none" xmlns="http://www.w3.org/2000/svg">
<g clip-path="url(#clip0_6951_14)">
<path d="M45.18 20.86C50.6642 20.86 55.11 16.4142 55.11 10.93C55.11 5.44581 50.6642 1 45.18 1C39.6958 1 35.25 5.44581 35.25 10.93C35.25 16.4142 39.6958 20.86 45.18 20.86Z" stroke="#231F20" stroke-width="2" stroke-miterlimit="10"/>
<path d="M60.0391 24.3799V37.2399C60.0516 37.3776 60.0163 37.5153 59.9391 37.6299C59.8242 37.7705 59.6659 37.869 59.4891 37.9099C55.0908 40.5877 50.0279 41.9738 44.8791 41.9099C44.1512 41.8787 43.4262 41.7985 42.7091 41.6699C42.9896 40.8454 43.1643 39.9885 43.2291 39.1199C43.4153 36.6526 42.7549 34.1955 41.3569 32.154C39.9589 30.1124 37.9068 28.6084 35.5391 27.8899C36.3621 25.9614 36.6087 23.8357 36.2491 21.7699C36.2384 21.7099 36.2458 21.648 36.2702 21.5921C36.2946 21.5362 36.3349 21.4887 36.3862 21.4556C36.4374 21.4225 36.4973 21.4053 36.5583 21.406C36.6193 21.4068 36.6787 21.4256 36.7291 21.4599C39.1582 23.1603 42.0442 24.0874 45.0091 24.1199C48.7431 24.2461 52.382 22.9281 55.1691 20.4399C56.4193 20.4413 57.6346 20.8523 58.6291 21.6099C59.0582 21.935 59.4081 22.3531 59.6523 22.8329C59.8966 23.3127 60.0288 23.8417 60.0391 24.3799Z" stroke="#231F20" stroke-width="2" stroke-miterlimit="10"/>
<path d="M20.4399 33.8598C27.6307 33.8598 33.4599 28.0306 33.4599 20.8398C33.4599 13.6491 27.6307 7.81982 20.4399 7.81982C13.2492 7.81982 7.41992 13.6491 7.41992 20.8398C7.41992 28.0306 13.2492 33.8598 20.4399 33.8598Z" stroke="#231F20" stroke-width="2" stroke-miterlimit="10"/>
<path d="M38.97 54.7101C33.2013 58.3139 26.5215 60.1912 19.72 60.1201C19.72 60.1201 12.78 60.0401 1.87 54.9601C1.60674 54.8408 1.37671 54.6588 1.2 54.4301C1.07838 54.2566 1.00898 54.0519 1 53.8401V36.3901C1 33.4701 3.87 31.1201 7.42 31.1201C8.96045 32.8945 10.8426 34.3403 12.9542 35.3712C15.0658 36.4021 17.3635 36.9969 19.71 37.1201C22.2713 37.1616 24.8112 36.6466 27.154 35.6107C29.4969 34.5747 31.587 33.0426 33.28 31.1201C34.9236 31.1176 36.5211 31.663 37.82 32.6701C38.3912 33.112 38.8559 33.6767 39.1795 34.3223C39.5032 34.9679 39.6777 35.678 39.69 36.4001V53.8001L38.97 54.7101Z" stroke="#231F20" stroke-width="2" stroke-miterlimit="10"/>
</g>
<defs>
<clipPath id="clip0_6951_14">
<rect width="61.04" height="61.12" fill="white"/>
</clipPath>
</defs>
</svg>
