<svg width="49" height="48" viewBox="0 0 49 48" fill="none" xmlns="http://www.w3.org/2000/svg">
<path d="M19.4374 15.5998C5.30405 29.8665 3.70405 31.9998 1.70405 39.0665C0.504052 43.3332 -0.295948 47.1998 0.104052 47.5998C0.504052 47.8665 4.37072 47.1998 8.77072 45.9998C16.1041 43.8665 17.8374 42.5332 32.5041 27.8665L48.2374 11.9998L42.3707 5.99984C39.1707 2.6665 36.1041 -0.000165246 35.7041 -0.000165246C35.3041 -0.000165246 27.9707 7.0665 19.4374 15.5998ZM40.3707 7.99984C43.9707 11.8665 44.1041 12.1332 41.9707 14.2665C39.8374 16.3998 39.4374 16.3998 35.4374 12.3998C31.8374 8.79984 31.5707 7.8665 33.0374 6.13317C35.3041 3.19983 35.9707 3.4665 40.3707 7.99984ZM33.7041 14.6665L37.5707 18.6665L27.7041 28.6665C22.2374 34.2665 17.5707 38.1332 17.3041 37.3332C17.0374 36.6665 15.7041 35.9998 14.2374 35.9998C12.6374 35.9998 11.7041 35.0665 11.7041 33.3332C11.7041 31.8665 10.9041 30.6665 10.1041 30.6665C9.17072 30.6665 12.9041 26.1332 18.3707 20.6665C23.8374 15.1998 28.6374 10.6665 29.0374 10.6665C29.5707 10.6665 31.5707 12.5332 33.7041 14.6665ZM9.03739 35.9998C9.03739 37.7332 9.97072 38.6665 11.7041 38.6665C15.4374 38.6665 15.0374 41.1998 10.9041 42.6665C3.83739 45.4665 2.23739 43.8665 5.03739 36.7998C6.50405 32.6665 9.03739 32.2665 9.03739 35.9998Z" fill="#13B48A"/>
</svg>
