<svg width="32" height="33" viewBox="0 0 32 33" fill="none" xmlns="http://www.w3.org/2000/svg">
<path d="M30.4008 5.47393L30.4027 5.47584C31.1981 6.29176 31.2007 7.63326 30.4008 8.45817L27.7061 11.2371L21.0986 4.42327L23.8362 1.60014C24.6109 0.801268 25.8619 0.798242 26.6455 1.60134C26.6458 1.60157 26.646 1.60181 26.6462 1.60205L30.4008 5.47393ZM20.9549 4.275C20.9549 4.27509 20.955 4.27518 20.9551 4.27528L20.9549 4.275ZM20.9551 4.57126C20.955 4.57136 20.9549 4.57145 20.9549 4.57155L20.9551 4.57126ZM24.9068 14.1303L9.49891 30.0196V29.6641V27.3244V26.3244H8.49891H6.49877V24.2305V23.2305H5.49877H3.22992H2.8612L18.2962 7.31322L24.9068 14.1303ZM25.0506 14.2786C25.0504 14.2784 25.0503 14.2783 25.0502 14.2782L25.0506 14.2786ZM25.0502 13.9824C25.0503 13.9823 25.0504 13.9822 25.0506 13.982L25.0502 13.9824Z" stroke="#13B48A" stroke-width="2"/>
</svg>
