<svg width="64" height="40" viewBox="0 0 64 40" fill="none" xmlns="http://www.w3.org/2000/svg">
<path d="M43.47 0.799805H34.88C34.08 0.799805 33.31 1.0998 32.72 1.6398L22.89 10.6398C22.88 10.6498 22.87 10.6698 22.86 10.6798C21.2 12.2398 21.23 14.7298 22.65 16.2798C23.92 17.6698 26.59 18.0398 28.26 16.5498C28.27 16.5398 28.29 16.5398 28.3 16.5298L36.29 9.20981C36.94 8.61981 37.96 8.65981 38.55 9.30981C39.15 9.95981 39.1 10.9698 38.45 11.5698L35.84 13.9598L50.4 25.7798C50.69 26.0198 50.95 26.2798 51.19 26.5498V7.1998L45.73 1.7398C45.14 1.1398 44.32 0.799805 43.47 0.799805ZM54.4 7.2198V29.6098C54.4 31.3798 55.83 32.8098 57.6 32.8098H64V7.2198H54.4ZM59.2 29.6098C58.32 29.6098 57.6 28.8898 57.6 28.0098C57.6 27.1298 58.32 26.4098 59.2 26.4098C60.08 26.4098 60.8 27.1298 60.8 28.0098C60.8 28.8898 60.08 29.6098 59.2 29.6098ZM0 32.7998H6.4C8.17 32.7998 9.6 31.3698 9.6 29.5998V7.2198H0V32.7998ZM4.8 26.4098C5.68 26.4098 6.4 27.1298 6.4 28.0098C6.4 28.8898 5.68 29.6098 4.8 29.6098C3.92 29.6098 3.2 28.8898 3.2 28.0098C3.2 27.1198 3.92 26.4098 4.8 26.4098ZM48.39 28.2698L33.46 16.1498L30.46 18.8998C27.49 21.6098 22.94 21.3498 20.29 18.4598C17.6 15.5198 17.81 10.9698 20.73 8.2898L28.91 0.799805H20.53C19.68 0.799805 18.87 1.1398 18.27 1.7398L12.8 7.1998V29.5898H14.63L23.68 37.7798C26.42 40.0098 30.45 39.5898 32.68 36.8498L32.7 36.8298L34.49 38.3798C36.08 39.6798 38.43 39.4298 39.72 37.8398L42.86 33.9798L43.4 34.4198C44.77 35.5298 46.79 35.3298 47.9 33.9498L48.85 32.7798C49.97 31.3998 49.76 29.3898 48.39 28.2698Z" fill="black"/>
</svg>
