<svg width="62" height="55" viewBox="0 0 62 55" fill="none" xmlns="http://www.w3.org/2000/svg">
<g clip-path="url(#clip0_8909_46)">
<path d="M3.89822 28.807C2.66752 29.8583 1.02658 29.4378 0.411231 27.9659C-0.409237 26.494 0.000996983 24.6016 1.2317 23.7605L29.3327 1.89254C30.1532 1.26173 31.1788 1.26173 31.9993 1.89254L60.1003 23.7605C61.331 24.6016 61.5361 26.494 60.9208 27.9659C60.1003 29.4378 58.4594 29.8583 57.4338 28.807L30.5634 8.20062L3.89822 28.807Z" fill="black"/>
<path fill-rule="evenodd" clip-rule="evenodd" d="M54.1515 29.438V53.8292H40.2036V39.5309C40.2036 36.3768 37.5371 33.6433 34.4603 33.6433H26.871C23.5891 33.6433 20.9226 36.3768 20.9226 39.5309V53.8292H6.97461V29.438L30.5631 11.1445L54.1515 29.438Z" fill="black"/>
<path fill-rule="evenodd" clip-rule="evenodd" d="M26.8717 36.1665H34.461C36.3071 36.1665 37.7429 37.8487 37.7429 39.5308V53.8291H23.5898V39.5308C23.5898 37.8487 25.0257 36.1665 26.8717 36.1665Z" fill="black"/>
</g>
<defs>
<clipPath id="clip0_8909_46">
<rect width="61.33" height="54.67" fill="white"/>
</clipPath>
</defs>
</svg>
