<svg xmlns="http://www.w3.org/2000/svg" xmlns:xlink="http://www.w3.org/1999/xlink" version="1.1" x="0px" y="0px" viewBox="0 0 100 125" style="enable-background:new 0 0 100 100;" xml:space="preserve"><path d="M73.8,47.2L53.6,29.8c0,0-0.1-0.1-0.1-0.1c-2.1-1.5-4.9-1.5-7,0c0,0-0.1,0.1-0.1,0.1L26.2,47.2c-0.8,0.7-0.9,2-0.2,2.8  c0.7,0.8,2,0.9,2.8,0.2l1.2-1v16.2c0,3.3,2.7,6,6,6h28c3.3,0,6-2.7,6-6V49.2l1.2,1c0.4,0.3,0.8,0.5,1.3,0.5c0.6,0,1.1-0.2,1.5-0.7  C74.7,49.2,74.6,48,73.8,47.2z M54.2,67.4h-8.4V53.8h8.4V67.4z M66,46.7v18.8c0,1.1-0.9,2-2,2h-5.8V51.8c0-1.1-0.9-2-2-2H43.8  c-1.1,0-2,0.9-2,2v15.7H36c-1.1,0-2-0.9-2-2V45.8l14.9-12.9c0.7-0.4,1.5-0.4,2.2,0l15,13C66.1,46.1,66,46.4,66,46.7z"/><text x="0" y="115" fill="#000000" font-size="5px" font-weight="bold" font-family="'Helvetica Neue', Helvetica, Arial-Unicode, Arial, Sans-serif">Created by Division Icons</text><text x="0" y="120" fill="#000000" font-size="5px" font-weight="bold" font-family="'Helvetica Neue', Helvetica, Arial-Unicode, Arial, Sans-serif">from the Noun Project</text></svg>