<svg width="60" height="60" viewBox="0 0 60 60" fill="none" xmlns="http://www.w3.org/2000/svg">
<path d="M40.5 35.625C37.1367 35.625 35.5195 37.5 30 37.5C24.4805 37.5 22.875 35.625 19.5 35.625C10.8047 35.625 3.75 42.6797 3.75 51.375V54.375C3.75 57.4805 6.26953 60 9.375 60H50.625C53.7305 60 56.25 57.4805 56.25 54.375V51.375C56.25 42.6797 49.1953 35.625 40.5 35.625ZM50.625 54.375H9.375V51.375C9.375 45.7969 13.9219 41.25 19.5 41.25C21.2109 41.25 23.9883 43.125 30 43.125C36.0586 43.125 38.7773 41.25 40.5 41.25C46.0781 41.25 50.625 45.7969 50.625 51.375V54.375ZM30 33.75C39.3164 33.75 46.875 26.1914 46.875 16.875C46.875 7.55859 39.3164 0 30 0C20.6836 0 13.125 7.55859 13.125 16.875C13.125 26.1914 20.6836 33.75 30 33.75ZM30 5.625C36.1992 5.625 41.25 10.6758 41.25 16.875C41.25 23.0742 36.1992 28.125 30 28.125C23.8008 28.125 18.75 23.0742 18.75 16.875C18.75 10.6758 23.8008 5.625 30 5.625Z" fill="black"/>
</svg>
