<svg width="46" height="59" viewBox="0 0 46 59" fill="none" xmlns="http://www.w3.org/2000/svg">
<path d="M23.4399 30.04C30.6307 30.04 36.4599 24.2107 36.4599 17.02C36.4599 9.82925 30.6307 4 23.4399 4C16.2492 4 10.4199 9.82925 10.4199 17.02C10.4199 24.2107 16.2492 30.04 23.4399 30.04Z" stroke="#231F20" stroke-width="2" stroke-miterlimit="10"/>
<path d="M41.97 50.8903C36.2013 54.4941 29.5215 56.3714 22.72 56.3003C22.72 56.3003 15.78 56.2203 4.87 51.1403C4.60674 51.021 4.37671 50.839 4.2 50.6103C4.07838 50.4368 4.00898 50.232 4 50.0203V32.5703C4 29.6503 6.87 27.3003 10.42 27.3003C11.9604 29.0747 13.8426 30.5205 15.9542 31.5514C18.0658 32.5822 20.3635 33.1771 22.71 33.3003C25.2713 33.3418 27.8112 32.8267 30.154 31.7908C32.4969 30.7549 34.587 29.2228 36.28 27.3003C37.9236 27.2977 39.5211 27.8431 40.82 28.8503C41.3912 29.2922 41.8559 29.8568 42.1795 30.5025C42.5032 31.1481 42.6777 31.8582 42.69 32.5803V49.9803L41.97 50.8903Z" stroke="#231F20" stroke-width="2" stroke-miterlimit="10"/>
</svg>
