<svg width="60" height="60" viewBox="0 0 60 60" fill="none" xmlns="http://www.w3.org/2000/svg">
<path d="M30 30C38.2852 30 45 23.2852 45 15C45 6.71484 38.2852 0 30 0C21.7148 0 15 6.71484 15 15C15 23.2852 21.7148 30 30 30ZM40.5 33.75H38.543C35.9414 34.9453 33.0469 35.625 30 35.625C26.9531 35.625 24.0703 34.9453 21.457 33.75H19.5C10.8047 33.75 3.75 40.8047 3.75 49.5V54.375C3.75 57.4805 6.26953 60 9.375 60H50.625C53.7305 60 56.25 57.4805 56.25 54.375V49.5C56.25 40.8047 49.1953 33.75 40.5 33.75Z" fill="black"/>
</svg>
