<svg width="64" height="44" viewBox="0 0 64 44" fill="none" xmlns="http://www.w3.org/2000/svg">
<path d="M1.07745 18.6603C4.03073 14.4923 14.9875 0.893555 32.0003 0.893555C49.0138 0.893555 59.9696 14.4923 62.9222 18.66C64.359 20.6884 64.3594 23.3105 62.9226 25.3406C59.9696 29.5083 49.0118 43.107 32.0003 43.107C14.984 43.107 4.0304 29.5086 1.07872 25.3412C-0.35936 23.3127 -0.359352 20.6904 1.07745 18.6603ZM45.591 12.3908C45.0374 10.8446 44.2131 9.39724 43.1706 8.12268C42.3866 7.1646 41.3469 6.46923 40.1635 6.10635C37.6467 5.33419 34.9226 4.8702 32.0006 4.8702C29.0787 4.8702 26.3542 5.33419 23.8381 6.10635C22.6595 6.46763 21.6112 7.16876 20.831 8.12236C19.7878 9.39692 18.9639 10.8446 18.4106 12.3908C17.8531 13.947 17.5702 15.5841 17.5702 17.2561C17.5702 25.2126 24.0435 31.6859 32.001 31.6859C39.9584 31.6859 46.4317 25.2126 46.4317 17.2561C46.431 15.5838 46.1482 13.947 45.591 12.3908ZM4.32321 23.042C6.99649 26.8161 16.8925 39.1304 32.0003 39.1304C47.1043 39.1304 57.0038 26.8158 59.6774 23.0427C60.1328 22.3995 60.1328 21.6007 59.6774 20.9588C58.2141 18.8929 54.5824 14.2712 49.121 10.5083C49.1926 10.6884 49.2685 10.8673 49.3344 11.0497C50.0464 13.0372 50.4074 15.1256 50.4074 17.2561C50.4074 27.4052 42.1498 35.6622 32.0003 35.6622C21.8506 35.6622 13.5933 27.4052 13.5933 17.2561C13.5933 15.1259 13.9546 13.0372 14.6666 11.0494C14.7322 10.8673 14.8083 10.6884 14.8797 10.5083C9.41858 14.2712 5.78624 18.8935 4.32288 20.9588C3.86752 21.6014 3.86753 22.3992 4.32321 23.042Z" fill="black"/>
<path d="M31.9352 27.2285C26.4872 27.2285 22.0712 22.8122 22.0712 17.3645C22.0712 11.9175 26.4872 7.50049 31.9352 7.50049C33.4872 7.50049 34.9553 7.86018 36.2619 8.49922C34.0907 8.67234 32.3835 10.4835 32.3835 12.6986C32.3835 15.0269 34.2712 16.9155 36.6011 16.9155C38.8152 16.9155 40.627 15.2074 40.8004 13.0387C41.4395 14.345 41.7988 15.8128 41.7988 17.3648C41.7991 22.8122 37.3822 27.2285 31.9352 27.2285Z" fill="black"/>
</svg>
