<?xml version="1.0" standalone="no"?>
<!DOCTYPE svg PUBLIC "-//W3C//DTD SVG 20010904//EN"
 "http://www.w3.org/TR/2001/REC-SVG-20010904/DTD/svg10.dtd">
<svg version="1.0" xmlns="http://www.w3.org/2000/svg"
 width="36.000000pt" height="36.000000pt" viewBox="0 0 36.000000 36.000000"
 preserveAspectRatio="xMidYMid meet">

<g transform="translate(0.000000,36.000000) scale(0.100000,-0.100000)"
fill="#000000" stroke="none">
<path d="M148 243 c-106 -107 -118 -123 -133 -176 -9 -32 -15 -61 -12 -64 3
-2 32 3 65 12 55 16 68 26 178 136 l118 119 -44 45 c-24 25 -47 45 -50 45 -3
0 -58 -53 -122 -117z m157 57 c27 -29 28 -31 12 -47 -16 -16 -19 -16 -49 14
-27 27 -29 34 -18 47 17 22 22 20 55 -14z m-50 -50 l29 -30 -74 -75 c-41 -42
-76 -71 -78 -65 -2 5 -12 10 -23 10 -12 0 -19 7 -19 20 0 11 -6 20 -12 20 -7
0 21 34 62 75 41 41 77 75 80 75 4 0 19 -14 35 -30z m-185 -160 c0 -13 7 -20
20 -20 28 0 25 -19 -6 -30 -53 -21 -65 -9 -44 44 11 31 30 34 30 6z"/>
</g>
</svg>
