<?xml version="1.0" standalone="no"?>
<!DOCTYPE svg PUBLIC "-//W3C//DTD SVG 20010904//EN"
 "http://www.w3.org/TR/2001/REC-SVG-20010904/DTD/svg10.dtd">
<svg version="1.0" xmlns="http://www.w3.org/2000/svg"
 width="36.000000pt" height="36.000000pt" viewBox="0 0 36.000000 36.000000"
 preserveAspectRatio="xMidYMid meet">

<g transform="translate(0.000000,36.000000) scale(0.100000,-0.100000)"
fill="#000000" stroke="none">
<path d="M242 337 l-22 -23 48 -47 48 -47 24 25 24 25 -44 45 c-24 25 -47 45
-50 45 -4 0 -16 -10 -28 -23z"/>
<path d="M118 213 c-75 -77 -89 -96 -103 -146 -9 -32 -15 -61 -12 -64 3 -2 32
3 65 12 53 15 69 27 148 106 l88 89 -44 45 c-24 25 -47 45 -50 45 -3 0 -44
-39 -92 -87z m-45 -123 c3 -11 12 -20 21 -20 25 0 19 -19 -10 -30 -53 -21 -65
-9 -44 44 11 31 26 33 33 6z"/>
</g>
</svg>
