<svg width="64" height="64" viewBox="0 0 64 64" fill="none" xmlns="http://www.w3.org/2000/svg">
<path d="M35.6393 14.9301C35.6393 17.1907 34.9689 19.4006 33.713 21.2802C32.4571 23.1599 30.6719 24.6249 28.5834 25.49C26.4948 26.3551 24.1966 26.5815 21.9794 26.1404C19.7622 25.6994 17.7256 24.6108 16.1271 23.0123C14.5286 21.4138 13.44 19.3772 12.9989 17.16C12.5579 14.9427 12.7842 12.6446 13.6494 10.556C14.5145 8.46744 15.9795 6.68232 17.8591 5.42637C19.7388 4.17043 21.9487 3.50007 24.2093 3.50007C25.7118 3.49478 27.2005 3.78682 28.5896 4.35936C29.9788 4.9319 31.2409 5.77363 32.3033 6.83605C33.3657 7.89848 34.2075 9.16061 34.78 10.5498C35.3526 11.9389 35.6446 13.4276 35.6393 14.9301Z" stroke="black" stroke-width="2" stroke-miterlimit="10"/>
<path d="M31.12 54.4499C29.1343 55.0571 27.0757 55.3935 25 55.4499C21.554 55.4914 18.1357 54.829 14.9547 53.5033C11.7736 52.1776 8.89663 50.2164 6.5 47.7399V35.1499C6.5 32.8973 7.39416 30.7368 8.98606 29.143C10.578 27.5493 12.7374 26.6526 14.99 26.6499H16.71C18.79 28.4586 21.4536 29.4547 24.21 29.4547C26.9664 29.4547 29.63 28.4586 31.71 26.6499H33.62C35.6576 26.6476 37.6279 27.379 39.1704 28.7103C40.7129 30.0417 41.7245 31.8839 42.02 33.8999" stroke="black" stroke-width="2" stroke-miterlimit="10"/>
<path d="M57.3304 48.1498C57.3339 50.8953 56.4592 53.5701 54.8343 55.7832C53.2093 57.9963 50.9192 59.6317 48.2986 60.4505C45.6779 61.2693 42.8641 61.2286 40.2683 60.3343C37.6724 59.44 35.4306 57.739 33.8704 55.4798C32.366 53.3322 31.5626 50.7719 31.5704 48.1498C31.5691 46.4575 31.9012 44.7816 32.5479 43.2177C33.1946 41.6539 34.1431 40.2328 35.3393 39.0358C36.5354 37.8387 37.9558 36.8891 39.5191 36.2412C41.0824 35.5932 42.7581 35.2598 44.4504 35.2598H44.6004C47.9912 35.3019 51.2289 36.6785 53.6117 39.0913C55.9946 41.5041 57.3306 44.7587 57.3304 48.1498Z" stroke="black" stroke-width="2" stroke-miterlimit="10"/>
<path d="M52.6509 49.7898H35.9609V47.0098H52.6509V49.7898Z" fill="black"/>
</svg>
