<svg width="60" height="58" viewBox="0 0 60 58" fill="none" xmlns="http://www.w3.org/2000/svg">
<path d="M51.6665 24.3086C50.8556 25.3965 49.9274 26.3598 48.9096 27.1713C53.2209 29.9216 56.0863 34.7466 56.0863 40.2287C56.0863 42.0081 53.4753 43.2351 51.9192 43.8081C50.7057 44.255 49.2788 44.6208 47.7193 44.8972C47.7697 45.5561 47.7957 46.2219 47.7957 46.8934C47.7957 47.4747 47.745 48.1521 47.5977 48.8895C49.6936 48.5637 51.6182 48.09 53.2717 47.4812C58.8332 45.4335 60.0006 42.4069 60.0006 40.2287C60.0005 33.6429 56.6997 27.8147 51.6665 24.3086Z" fill="black"/>
<path d="M40.6084 0.976074C38.1641 0.976074 35.8577 1.94627 33.9902 3.73493C34.7251 4.67591 35.3671 5.69256 35.9125 6.76792C37.164 5.34054 38.8084 4.47133 40.6084 4.47133C44.5167 4.47133 47.6963 8.56193 47.6963 13.5898C47.6963 18.6178 44.5167 22.7084 40.6084 22.7084C39.4328 22.7084 38.3242 22.3361 37.3472 21.6818C37.0299 22.8382 36.613 23.9547 36.1038 25.0174C37.4923 25.7939 39.0212 26.2038 40.6084 26.2038C46.588 26.2038 51.1917 20.4238 51.1917 13.5898C51.1917 6.75526 46.5873 0.976074 40.6084 0.976074Z" fill="black"/>
<path d="M33.9229 28.5234C33.0766 29.594 32.1766 30.4921 31.2391 31.2493C36.5676 34.4285 40.1448 40.2508 40.1448 46.8936C40.1448 49.1372 36.9999 50.6302 35.1253 51.3204C31.7297 52.5707 26.9241 53.2877 21.9405 53.2877C16.957 53.2877 12.1512 52.5707 8.75568 51.3204C6.88103 50.6302 3.7361 49.1373 3.7361 46.8936C3.7361 40.2506 7.31329 34.4284 12.6418 31.2493C11.7045 30.4923 10.8044 29.594 9.95799 28.5234C3.96678 32.4448 0 39.2142 0 46.8937C0 49.2588 1.29508 52.5548 7.46477 54.8265C11.3132 56.2435 16.4541 57.0238 21.9404 57.0238C27.4267 57.0238 32.5676 56.2435 36.416 54.8265C42.5857 52.5548 43.8808 49.2588 43.8808 46.8937C43.8808 39.2142 39.9141 32.4448 33.9229 28.5234Z" fill="black"/>
<path d="M21.9404 30.6739C28.8558 30.6739 34.1795 23.9892 34.1795 16.0865C34.1795 8.18357 28.8552 1.49902 21.9404 1.49902C15.0259 1.49902 9.70117 8.18226 9.70117 16.0865C9.70117 23.9908 15.0264 30.6739 21.9404 30.6739ZM21.9404 5.235C26.629 5.235 30.4434 10.103 30.4434 16.0863C30.4434 22.0697 26.6289 26.9377 21.9404 26.9377C17.2518 26.9377 13.4373 22.0697 13.4373 16.0863C13.4373 10.103 17.2518 5.235 21.9404 5.235Z" fill="black"/>
</svg>
