<svg width="64" height="64" viewBox="0 0 64 64" fill="none" xmlns="http://www.w3.org/2000/svg">
<path d="M37.6393 14.9301C37.6393 17.1907 36.9689 19.4006 35.713 21.2802C34.4571 23.1599 32.6719 24.6249 30.5834 25.49C28.4948 26.3551 26.1966 26.5815 23.9794 26.1404C21.7622 25.6994 19.7256 24.6108 18.1271 23.0123C16.5286 21.4138 15.44 19.3772 14.9989 17.16C14.5579 14.9427 14.7842 12.6446 15.6494 10.556C16.5145 8.46744 17.9795 6.68232 19.8591 5.42637C21.7388 4.17043 23.9487 3.50007 26.2093 3.50007C27.7118 3.49478 29.2005 3.78682 30.5896 4.35936C31.9788 4.9319 33.2409 5.77363 34.3033 6.83605C35.3657 7.89848 36.2075 9.16061 36.78 10.5498C37.3526 11.9389 37.6446 13.4276 37.6393 14.9301Z" stroke="black" stroke-width="2" stroke-miterlimit="10"/>
<path d="M33.12 54.4499C31.1343 55.0571 29.0757 55.3935 27 55.4499C23.554 55.4914 20.1357 54.829 16.9547 53.5033C13.7736 52.1776 10.8966 50.2164 8.5 47.7399V35.1499C8.5 32.8973 9.39416 30.7368 10.9861 29.143C12.578 27.5493 14.7374 26.6526 16.99 26.6499H18.71C20.79 28.4586 23.4536 29.4547 26.21 29.4547C28.9664 29.4547 31.63 28.4586 33.71 26.6499H35.62C37.6576 26.6476 39.6279 27.379 41.1704 28.7103C42.7129 30.0417 43.7245 31.8839 44.02 33.8999" stroke="black" stroke-width="2" stroke-miterlimit="10"/>
<path d="M59.3304 48.1498C59.3339 50.8953 58.4592 53.5701 56.8343 55.7832C55.2093 57.9963 52.9192 59.6317 50.2986 60.4505C47.6779 61.2693 44.8641 61.2286 42.2683 60.3343C39.6724 59.44 37.4306 57.739 35.8704 55.4798C34.366 53.3322 33.5626 50.7719 33.5704 48.1498C33.5691 46.4575 33.9012 44.7816 34.5479 43.2177C35.1946 41.6539 36.1431 40.2328 37.3393 39.0358C38.5354 37.8387 39.9558 36.8891 41.5191 36.2412C43.0824 35.5932 44.7581 35.2598 46.4504 35.2598H46.6004C49.9912 35.3019 53.2289 36.6785 55.6117 39.0913C57.9946 41.5041 59.3306 44.7587 59.3304 48.1498Z" stroke="black" stroke-width="2" stroke-miterlimit="10"/>
<path d="M51.3207 45.4499H50.3207V43.4499C50.3207 42.3758 49.894 41.3456 49.1345 40.5861C48.375 39.8266 47.3448 39.3999 46.2707 39.3999C45.1966 39.3999 44.1664 39.8266 43.4069 40.5861C42.6474 41.3456 42.2207 42.3758 42.2207 43.4499V45.4499H41.2207C40.9555 45.4499 40.7011 45.5553 40.5136 45.7428C40.3261 45.9303 40.2207 46.1847 40.2207 46.4499V54.5499C40.2207 54.8151 40.3261 55.0695 40.5136 55.257C40.7011 55.4445 40.9555 55.5499 41.2207 55.5499H51.3207C51.5859 55.5499 51.8403 55.4445 52.0278 55.257C52.2153 55.0695 52.3207 54.8151 52.3207 54.5499V46.4499C52.3207 46.1847 52.2153 45.9303 52.0278 45.7428C51.8403 45.5553 51.5859 45.4499 51.3207 45.4499ZM46.2607 51.5199C46.0629 51.5199 45.8696 51.4613 45.7051 51.3514C45.5407 51.2415 45.4125 51.0853 45.3368 50.9026C45.2611 50.7199 45.2413 50.5188 45.2799 50.3248C45.3185 50.1308 45.4137 49.9526 45.5536 49.8128C45.6934 49.6729 45.8716 49.5777 46.0656 49.5391C46.2596 49.5005 46.4607 49.5203 46.6434 49.596C46.8261 49.6717 46.9823 49.7999 47.0922 49.9643C47.2021 50.1288 47.2607 50.3221 47.2607 50.5199C47.2607 50.7851 47.1553 51.0395 46.9678 51.227C46.7803 51.4145 46.5259 51.5199 46.2607 51.5199ZM48.2607 45.4499H44.2607V43.4499C44.2607 42.9195 44.4714 42.4108 44.8465 42.0357C45.2216 41.6606 45.7303 41.4499 46.2607 41.4499C46.7911 41.4499 47.2998 41.6606 47.6749 42.0357C48.05 42.4108 48.2607 42.9195 48.2607 43.4499V45.4499Z" fill="#231F20"/>
</svg>
