<svg width="64" height="64" viewBox="0 0 64 64" fill="none" xmlns="http://www.w3.org/2000/svg">
<path d="M32.0014 10.0562C25.4292 10.0562 20.1016 16.3474 20.1016 24.1109C20.1016 31.8734 25.4289 38.1666 32.0014 38.1666C38.5739 38.1666 43.9016 31.8731 43.9016 24.1109C43.9016 16.3474 38.5736 10.0562 32.0014 10.0562Z" fill="black"/>
<path d="M32 0C14.3549 0 0 14.3549 0 31.9997C0.00032 49.6448 14.3552 64 32 64C49.6445 64 63.9997 49.6448 63.9997 31.9997C63.9997 14.3549 49.6448 0 32 0ZM53.1245 50.5232C53.1152 50.4877 53.1104 50.4518 53.1005 50.4166C51.5853 45.1293 48.1494 40.6586 43.6006 37.791C42.703 37.2253 41.5392 37.3174 40.7427 38.0182C38.3011 40.1683 35.2806 41.4486 32.0006 41.4486C28.6566 41.4486 25.5811 40.1187 23.1152 37.8925C22.328 37.1814 21.169 37.0746 20.264 37.6272C15.6538 40.4422 12.151 44.8877 10.5683 50.1686C6.40448 45.2646 3.88447 38.9222 3.88447 32C3.88447 16.4973 16.497 3.8848 31.9997 3.8848C47.5021 3.8848 60.1145 16.4973 60.1145 32C60.1149 39.0909 57.471 45.5718 53.1245 50.5232Z" fill="black"/>
</svg>
