<svg width="60" height="58" viewBox="0 0 60 58" fill="none" xmlns="http://www.w3.org/2000/svg">
<path d="M51.6658 24.3086C49.2353 27.5694 45.7109 29.7827 41.5664 30.0821C45.0404 34.132 47.2864 39.2645 47.7185 44.8973C47.8807 47.0106 47.7666 48.0395 47.5969 48.8897C49.6928 48.5639 51.6174 48.0902 53.2709 47.4814C58.8325 45.4337 59.9999 42.4071 59.9999 40.2289C59.9999 33.6432 56.6991 27.8147 51.6658 24.3086Z" fill="black"/>
<path d="M36.1038 25.0173C37.4923 25.7939 39.0212 26.2037 40.6084 26.2037C46.588 26.2037 51.1917 20.4237 51.1917 13.5899C51.1917 6.7554 46.5873 0.976074 40.6084 0.976074C38.1641 0.976074 35.8577 1.94628 33.9902 3.73494C36.6036 7.08159 38.0931 11.4423 38.0931 16.0865C38.0931 19.1638 37.44 22.2291 36.1038 25.0173Z" fill="black"/>
<path d="M33.923 28.5234C30.7188 32.5757 26.3896 34.5881 21.9404 34.5881C17.2131 34.5881 12.9782 32.3432 9.95788 28.5234C3.96679 32.4447 0 39.2142 0 46.8937C0 49.2588 1.29508 52.5549 7.46479 54.8265C11.3132 56.2436 16.4542 57.0238 21.9404 57.0238C27.4267 57.0238 32.5677 56.2436 36.4161 54.8265C42.5858 52.5549 43.8809 49.2588 43.8809 46.8937C43.8809 39.2142 39.9142 32.4447 33.923 28.5234Z" fill="black"/>
<path d="M21.9404 30.674C28.8559 30.674 34.1796 23.9893 34.1796 16.0865C34.1796 8.18358 28.8552 1.49902 21.9404 1.49902C15.0259 1.49902 9.70117 8.18227 9.70117 16.0865C9.70117 23.9909 15.0265 30.674 21.9404 30.674Z" fill="black"/>
</svg>
