<svg id="Layer_1" data-name="Layer 1" xmlns="http://www.w3.org/2000/svg" viewBox="0 0 51.84 58.52"><defs><style>.cls-1{fill:#fff;stroke:#231f20;stroke-miterlimit:10;}.cls-2{fill-rule:evenodd;}</style></defs><title>user-plus</title><path class="cls-1" d="M35.52,14.78A11.43,11.43,0,1,1,24.09,3.35,11.39,11.39,0,0,1,35.52,14.78Z" transform="translate(-5.88 -2.85)"/><path class="cls-1" d="M31,54.3a23.07,23.07,0,0,1-6.12,1A25.32,25.32,0,0,1,6.38,47.59V35a8.5,8.5,0,0,1,8.49-8.5h1.72a11.43,11.43,0,0,0,15,0H33.5a8.48,8.48,0,0,1,8.4,7.25" transform="translate(-5.88 -2.85)"/><path class="cls-1" d="M57.21,48a12.87,12.87,0,0,1-23.46,7.33A12.71,12.71,0,0,1,31.45,48,12.88,12.88,0,0,1,44.33,35.11h.15A12.89,12.89,0,0,1,57.21,48Z" transform="translate(-5.88 -2.85)"/><g id="SVGRepo_iconCarrier" data-name="SVGRepo iconCarrier"><g id="Page-1"><g id="Icon-Set-Filled"><path id="plus" class="cls-2" d="M50.48,46.7H46.59V42.82a1.95,1.95,0,1,0-3.89,0V46.7H38.82a1.95,1.95,0,1,0,0,3.89H42.7v3.89a1.95,1.95,0,1,0,3.89,0V50.59h3.89a1.95,1.95,0,1,0,0-3.89" transform="translate(-5.88 -2.85)"/></g></g></g></svg>