<svg width="64" height="64" viewBox="0 0 64 64" fill="none" xmlns="http://www.w3.org/2000/svg">
<path d="M37.6393 14.9301C37.6393 17.1907 36.9689 19.4006 35.713 21.2802C34.4571 23.1599 32.6719 24.6249 30.5834 25.49C28.4948 26.3551 26.1966 26.5815 23.9794 26.1404C21.7622 25.6994 19.7256 24.6108 18.1271 23.0123C16.5286 21.4138 15.44 19.3772 14.9989 17.16C14.5579 14.9427 14.7842 12.6446 15.6494 10.556C16.5145 8.46744 17.9795 6.68232 19.8591 5.42637C21.7388 4.17043 23.9487 3.50007 26.2093 3.50007C27.7118 3.49478 29.2005 3.78682 30.5896 4.35936C31.9788 4.9319 33.2409 5.77363 34.3033 6.83605C35.3657 7.89848 36.2075 9.16061 36.78 10.5498C37.3526 11.9389 37.6446 13.4276 37.6393 14.9301Z" stroke="black" stroke-width="2" stroke-miterlimit="10"/>
<path d="M33.12 54.4499C31.1343 55.0571 29.0757 55.3935 27 55.4499C23.554 55.4914 20.1357 54.829 16.9547 53.5033C13.7736 52.1776 10.8966 50.2164 8.5 47.7399V35.1499C8.5 32.8973 9.39416 30.7368 10.9861 29.143C12.578 27.5493 14.7374 26.6526 16.99 26.6499H18.71C20.79 28.4586 23.4536 29.4547 26.21 29.4547C28.9664 29.4547 31.63 28.4586 33.71 26.6499H35.62C37.6576 26.6476 39.6279 27.379 41.1704 28.7103C42.7129 30.0417 43.7245 31.8839 44.02 33.8999" stroke="black" stroke-width="2" stroke-miterlimit="10"/>
<path d="M59.3304 48.1498C59.3339 50.8953 58.4592 53.5701 56.8343 55.7832C55.2093 57.9963 52.9192 59.6317 50.2986 60.4505C47.6779 61.2693 44.8641 61.2286 42.2683 60.3343C39.6724 59.44 37.4306 57.739 35.8704 55.4798C34.366 53.3322 33.5626 50.7719 33.5704 48.1498C33.5691 46.4575 33.9012 44.7816 34.5479 43.2177C35.1946 41.6539 36.1431 40.2328 37.3393 39.0358C38.5354 37.8387 39.9558 36.8891 41.5191 36.2412C43.0824 35.5932 44.7581 35.2598 46.4504 35.2598H46.6004C49.9912 35.3019 53.2289 36.6785 55.6117 39.0913C57.9946 41.5041 59.3306 44.7587 59.3304 48.1498Z" stroke="black" stroke-width="2" stroke-miterlimit="10"/>
<path d="M49.1706 48.62L53.7906 53.23C53.8622 53.3015 53.9191 53.3865 53.9579 53.48C53.9967 53.5735 54.0166 53.6738 54.0166 53.775C54.0166 53.8763 53.9967 53.9765 53.9579 54.07C53.9191 54.1635 53.8622 54.2485 53.7906 54.32L52.1206 55.95C52.0491 56.0217 51.9641 56.0785 51.8706 56.1173C51.7771 56.1561 51.6768 56.1761 51.5756 56.1761C51.4743 56.1761 51.3741 56.1561 51.2806 56.1173C51.1871 56.0785 51.1021 56.0217 51.0306 55.95L46.4206 51.33L41.8406 55.95C41.7699 56.0214 41.6858 56.078 41.5931 56.1167C41.5004 56.1553 41.401 56.1752 41.3006 56.1752C41.2002 56.1752 41.1007 56.1553 41.008 56.1167C40.9154 56.078 40.8313 56.0214 40.7606 55.95L39.1206 54.32C39.0489 54.2485 38.9921 54.1635 38.9533 54.07C38.9145 53.9765 38.8945 53.8763 38.8945 53.775C38.8945 53.6738 38.9145 53.5735 38.9533 53.48C38.9921 53.3865 39.0489 53.3015 39.1206 53.23L43.7306 48.62L39.1206 44C39.0492 43.9294 38.9926 43.8452 38.9539 43.7526C38.9153 43.6599 38.8954 43.5604 38.8954 43.46C38.8954 43.3596 38.9153 43.2602 38.9539 43.1675C38.9926 43.0748 39.0492 42.9907 39.1206 42.92L40.7506 41.29C40.8213 41.2187 40.9054 41.162 40.998 41.1234C41.0907 41.0847 41.1902 41.0648 41.2906 41.0648C41.391 41.0648 41.4904 41.0847 41.5831 41.1234C41.6758 41.162 41.7599 41.2187 41.8306 41.29L46.4506 45.9L51.1206 41.29C51.1921 41.2184 51.2771 41.1615 51.3706 41.1227C51.4641 41.0839 51.5643 41.064 51.6656 41.064C51.7668 41.064 51.8671 41.0839 51.9606 41.1227C52.0541 41.1615 52.1391 41.2184 52.2106 41.29L53.8406 42.92C53.9119 42.9907 53.9686 43.0748 54.0072 43.1675C54.0459 43.2602 54.0658 43.3596 54.0658 43.46C54.0658 43.5604 54.0459 43.6599 54.0072 43.7526C53.9686 43.8452 53.9119 43.9294 53.8406 44L49.1706 48.62Z" fill="black"/>
</svg>
